<?xml version="1.0" encoding="UTF-8" standalone="no"?>
<!DOCTYPE svg PUBLIC "-//W3C//DTD SVG 1.1//EN"
 "http://www.w3.org/Graphics/SVG/1.1/DTD/svg11.dtd">
<!-- Generated by graphviz version 2.50.0 (20211209.0339)
 -->
<!-- Title: snakemake_dag Pages: 1 -->
<svg width="1054pt" height="1124pt"
 viewBox="0.00 0.00 1054.00 1124.00" xmlns="http://www.w3.org/2000/svg" xmlns:xlink="http://www.w3.org/1999/xlink">
<g id="graph0" class="graph" transform="scale(1 1) rotate(0) translate(4 1120)">
<title>snakemake_dag</title>
<polygon fill="white" stroke="transparent" points="-4,4 -4,-1120 1050,-1120 1050,4 -4,4"/>
<!-- 0 -->
<g id="node1" class="node">
<title>0</title>
<path fill="none" stroke="#d87556" stroke-width="2" d="M530,-36C530,-36 500,-36 500,-36 494,-36 488,-30 488,-24 488,-24 488,-12 488,-12 488,-6 494,0 500,0 500,0 530,0 530,0 536,0 542,-6 542,-12 542,-12 542,-24 542,-24 542,-30 536,-36 530,-36"/>
<text text-anchor="middle" x="515" y="-15.5" font-family="sans" font-size="10.00">all</text>
</g>
<!-- 1 -->
<g id="node2" class="node">
<title>1</title>
<path fill="none" stroke="#56d8a9" stroke-width="2" d="M725,-180C725,-180 561,-180 561,-180 555,-180 549,-174 549,-168 549,-168 549,-156 549,-156 549,-150 555,-144 561,-144 561,-144 725,-144 725,-144 731,-144 737,-150 737,-156 737,-156 737,-168 737,-168 737,-174 731,-180 725,-180"/>
<text text-anchor="middle" x="643" y="-159.5" font-family="sans" font-size="10.00">add_N_and_ambig_counts_to_stats</text>
</g>
<!-- 1&#45;&gt;0 -->
<g id="edge5" class="edge">
<title>1&#45;&gt;0</title>
<path fill="none" stroke="grey" stroke-width="2" d="M584.22,-143.91C565.67,-135.81 546.71,-124.24 534,-108 520.34,-90.55 515.94,-65.51 514.76,-46.43"/>
<polygon fill="grey" stroke="grey" stroke-width="2" points="518.25,-46.13 514.39,-36.26 511.26,-46.38 518.25,-46.13"/>
</g>
<!-- 2 -->
<g id="node3" class="node">
<title>2</title>
<path fill="none" stroke="#56d85b" stroke-width="2" d="M877.5,-468C877.5,-468 788.5,-468 788.5,-468 782.5,-468 776.5,-462 776.5,-456 776.5,-456 776.5,-444 776.5,-444 776.5,-438 782.5,-432 788.5,-432 788.5,-432 877.5,-432 877.5,-432 883.5,-432 889.5,-438 889.5,-444 889.5,-444 889.5,-456 889.5,-456 889.5,-462 883.5,-468 877.5,-468"/>
<text text-anchor="middle" x="833" y="-447.5" font-family="sans" font-size="10.00">get_summary_stats</text>
</g>
<!-- 2&#45;&gt;1 -->
<g id="edge9" class="edge">
<title>2&#45;&gt;1</title>
<path fill="none" stroke="grey" stroke-width="2" d="M822.55,-431.7C808.08,-407.65 781.21,-362.72 759,-324 731.68,-276.37 732.67,-259.38 699,-216 690.99,-205.67 680.94,-195.51 671.57,-186.89"/>
<polygon fill="grey" stroke="grey" stroke-width="2" points="673.71,-184.11 663.92,-180.05 669.04,-189.33 673.71,-184.11"/>
</g>
<!-- 3 -->
<g id="node4" class="node">
<title>3</title>
<path fill="none" stroke="#56d86b" stroke-width="2" d="M826,-612C826,-612 788,-612 788,-612 782,-612 776,-606 776,-600 776,-600 776,-588 776,-588 776,-582 782,-576 788,-576 788,-576 826,-576 826,-576 832,-576 838,-582 838,-588 838,-588 838,-600 838,-600 838,-606 832,-612 826,-612"/>
<text text-anchor="middle" x="807" y="-591.5" font-family="sans" font-size="10.00">get_stats</text>
</g>
<!-- 3&#45;&gt;2 -->
<g id="edge11" class="edge">
<title>3&#45;&gt;2</title>
<path fill="none" stroke="grey" stroke-width="2" d="M810.14,-575.87C814.57,-551.67 822.71,-507.21 827.98,-478.39"/>
<polygon fill="grey" stroke="grey" stroke-width="2" points="831.49,-478.66 829.85,-468.19 824.61,-477.4 831.49,-478.66"/>
</g>
<!-- 4 -->
<g id="node5" class="node">
<title>4</title>
<path fill="none" stroke="#56d0d8" stroke-width="2" d="M791.5,-1044C791.5,-1044 746.5,-1044 746.5,-1044 740.5,-1044 734.5,-1038 734.5,-1032 734.5,-1032 734.5,-1020 734.5,-1020 734.5,-1014 740.5,-1008 746.5,-1008 746.5,-1008 791.5,-1008 791.5,-1008 797.5,-1008 803.5,-1014 803.5,-1020 803.5,-1020 803.5,-1032 803.5,-1032 803.5,-1038 797.5,-1044 791.5,-1044"/>
<text text-anchor="middle" x="769" y="-1023.5" font-family="sans" font-size="10.00">trim_reads</text>
</g>
<!-- 4&#45;&gt;3 -->
<g id="edge13" class="edge">
<title>4&#45;&gt;3</title>
<path fill="none" stroke="grey" stroke-width="2" d="M776.29,-1007.87C786.8,-981.53 805,-929.29 805,-883 805,-883 805,-883 805,-737 805,-696.99 805.8,-650.65 806.39,-622.08"/>
<polygon fill="grey" stroke="grey" stroke-width="2" points="809.89,-622.12 806.6,-612.05 802.89,-621.97 809.89,-622.12"/>
</g>
<!-- 9 -->
<g id="node10" class="node">
<title>9</title>
<path fill="none" stroke="#56d8c9" stroke-width="2" d="M763,-972C763,-972 709,-972 709,-972 703,-972 697,-966 697,-960 697,-960 697,-948 697,-948 697,-942 703,-936 709,-936 709,-936 763,-936 763,-936 769,-936 775,-942 775,-948 775,-948 775,-960 775,-960 775,-966 769,-972 763,-972"/>
<text text-anchor="middle" x="736" y="-951.5" font-family="sans" font-size="10.00">prinseq_trim</text>
</g>
<!-- 4&#45;&gt;9 -->
<g id="edge19" class="edge">
<title>4&#45;&gt;9</title>
<path fill="none" stroke="grey" stroke-width="2" d="M760.84,-1007.7C757.09,-999.73 752.55,-990.1 748.38,-981.26"/>
<polygon fill="grey" stroke="grey" stroke-width="2" points="751.49,-979.66 744.06,-972.1 745.16,-982.64 751.49,-979.66"/>
</g>
<!-- 5 -->
<g id="node6" class="node">
<title>5</title>
<path fill="none" stroke="#d88556" stroke-width="2" d="M818,-1116C818,-1116 720,-1116 720,-1116 714,-1116 708,-1110 708,-1104 708,-1104 708,-1092 708,-1092 708,-1086 714,-1080 720,-1080 720,-1080 818,-1080 818,-1080 824,-1080 830,-1086 830,-1092 830,-1092 830,-1104 830,-1104 830,-1110 824,-1116 818,-1116"/>
<text text-anchor="middle" x="769" y="-1095.5" font-family="sans" font-size="10.00">demultiplex_samples</text>
</g>
<!-- 5&#45;&gt;4 -->
<g id="edge14" class="edge">
<title>5&#45;&gt;4</title>
<path fill="none" stroke="grey" stroke-width="2" d="M769,-1079.7C769,-1071.98 769,-1062.71 769,-1054.11"/>
<polygon fill="grey" stroke="grey" stroke-width="2" points="772.5,-1054.1 769,-1044.1 765.5,-1054.1 772.5,-1054.1"/>
</g>
<!-- 6 -->
<g id="node7" class="node">
<title>6</title>
<path fill="none" stroke="#d86656" stroke-width="2" d="M703.5,-684C703.5,-684 620.5,-684 620.5,-684 614.5,-684 608.5,-678 608.5,-672 608.5,-672 608.5,-660 608.5,-660 608.5,-654 614.5,-648 620.5,-648 620.5,-648 703.5,-648 703.5,-648 709.5,-648 715.5,-654 715.5,-660 715.5,-660 715.5,-672 715.5,-672 715.5,-678 709.5,-684 703.5,-684"/>
<text text-anchor="middle" x="662" y="-663.5" font-family="sans" font-size="10.00">sort_ivar_trimmed</text>
</g>
<!-- 6&#45;&gt;3 -->
<g id="edge12" class="edge">
<title>6&#45;&gt;3</title>
<path fill="none" stroke="grey" stroke-width="2" d="M697.47,-647.88C718.36,-637.79 744.85,-625 766.55,-614.53"/>
<polygon fill="grey" stroke="grey" stroke-width="2" points="768.35,-617.55 775.83,-610.05 765.31,-611.24 768.35,-617.55"/>
</g>
<!-- 14 -->
<g id="node15" class="node">
<title>14</title>
<path fill="none" stroke="#9fd856" stroke-width="2" d="M654,-540C654,-540 562,-540 562,-540 556,-540 550,-534 550,-528 550,-528 550,-516 550,-516 550,-510 556,-504 562,-504 562,-504 654,-504 654,-504 660,-504 666,-510 666,-516 666,-516 666,-528 666,-528 666,-534 660,-540 654,-540"/>
<text text-anchor="middle" x="608" y="-519.5" font-family="sans" font-size="10.00">generate_consensus</text>
</g>
<!-- 6&#45;&gt;14 -->
<g id="edge25" class="edge">
<title>6&#45;&gt;14</title>
<path fill="none" stroke="grey" stroke-width="2" d="M629.47,-647.98C616.21,-639.18 602.3,-627.09 595,-612 585.59,-592.55 590.15,-568.12 596.33,-549.78"/>
<polygon fill="grey" stroke="grey" stroke-width="2" points="599.65,-550.88 599.85,-540.29 593.09,-548.45 599.65,-550.88"/>
</g>
<!-- 15 -->
<g id="node16" class="node">
<title>15</title>
<path fill="none" stroke="#56d88a" stroke-width="2" d="M707.5,-612C707.5,-612 616.5,-612 616.5,-612 610.5,-612 604.5,-606 604.5,-600 604.5,-600 604.5,-588 604.5,-588 604.5,-582 610.5,-576 616.5,-576 616.5,-576 707.5,-576 707.5,-576 713.5,-576 719.5,-582 719.5,-588 719.5,-588 719.5,-600 719.5,-600 719.5,-606 713.5,-612 707.5,-612"/>
<text text-anchor="middle" x="662" y="-591.5" font-family="sans" font-size="10.00">index_ivar_trimmed</text>
</g>
<!-- 6&#45;&gt;15 -->
<g id="edge26" class="edge">
<title>6&#45;&gt;15</title>
<path fill="none" stroke="grey" stroke-width="2" d="M662,-647.7C662,-639.98 662,-630.71 662,-622.11"/>
<polygon fill="grey" stroke="grey" stroke-width="2" points="665.5,-622.1 662,-612.1 658.5,-622.1 665.5,-622.1"/>
</g>
<!-- 18 -->
<g id="node19" class="node">
<title>18</title>
<path fill="none" stroke="#afd856" stroke-width="2" d="M245,-252C245,-252 153,-252 153,-252 147,-252 141,-246 141,-240 141,-240 141,-228 141,-228 141,-222 147,-216 153,-216 153,-216 245,-216 245,-216 251,-216 257,-222 257,-228 257,-228 257,-240 257,-240 257,-246 251,-252 245,-252"/>
<text text-anchor="middle" x="199" y="-231.5" font-family="sans" font-size="10.00">get_amplicon_depth</text>
</g>
<!-- 6&#45;&gt;18 -->
<g id="edge29" class="edge">
<title>6&#45;&gt;18</title>
<path fill="none" stroke="grey" stroke-width="2" d="M608.34,-657.51C499.07,-640.73 261,-595.84 261,-523 261,-523 261,-523 261,-377 261,-333.5 236.26,-288.29 218.03,-260.89"/>
<polygon fill="grey" stroke="grey" stroke-width="2" points="220.69,-258.58 212.15,-252.31 214.92,-262.54 220.69,-258.58"/>
</g>
<!-- 24 -->
<g id="node25" class="node">
<title>24</title>
<path fill="none" stroke="#80d856" stroke-width="2" d="M450.5,-540C450.5,-540 409.5,-540 409.5,-540 403.5,-540 397.5,-534 397.5,-528 397.5,-528 397.5,-516 397.5,-516 397.5,-510 403.5,-504 409.5,-504 409.5,-504 450.5,-504 450.5,-504 456.5,-504 462.5,-510 462.5,-516 462.5,-516 462.5,-528 462.5,-528 462.5,-534 456.5,-540 450.5,-540"/>
<text text-anchor="middle" x="430" y="-519.5" font-family="sans" font-size="10.00">get_depth</text>
</g>
<!-- 6&#45;&gt;24 -->
<g id="edge38" class="edge">
<title>6&#45;&gt;24</title>
<path fill="none" stroke="grey" stroke-width="2" d="M634.02,-647.87C592.12,-622.23 513.08,-573.85 466.64,-545.43"/>
<polygon fill="grey" stroke="grey" stroke-width="2" points="468.44,-542.42 458.08,-540.19 464.79,-548.39 468.44,-542.42"/>
</g>
<!-- 32 -->
<g id="node33" class="node">
<title>32</title>
<path fill="none" stroke="#8fd856" stroke-width="2" d="M1034,-252C1034,-252 964,-252 964,-252 958,-252 952,-246 952,-240 952,-240 952,-228 952,-228 952,-222 958,-216 964,-216 964,-216 1034,-216 1034,-216 1040,-216 1046,-222 1046,-228 1046,-228 1046,-240 1046,-240 1046,-246 1040,-252 1034,-252"/>
<text text-anchor="middle" x="999" y="-231.5" font-family="sans" font-size="10.00">make_climb_dir</text>
</g>
<!-- 6&#45;&gt;32 -->
<g id="edge47" class="edge">
<title>6&#45;&gt;32</title>
<path fill="none" stroke="grey" stroke-width="2" d="M691.2,-648C704.33,-638.91 718.9,-626.59 728,-612 749.45,-577.6 748,-563.54 748,-523 748,-523 748,-523 748,-449 748,-437.67 758.04,-438.94 767,-432 835.42,-379.02 865.46,-382.74 929,-324 949.69,-304.88 969.15,-279.27 982.27,-260.44"/>
<polygon fill="grey" stroke="grey" stroke-width="2" points="985.25,-262.28 988.01,-252.05 979.48,-258.33 985.25,-262.28"/>
</g>
<!-- 7 -->
<g id="node8" class="node">
<title>7</title>
<path fill="none" stroke="#56d89a" stroke-width="2" d="M683.5,-756C683.5,-756 646.5,-756 646.5,-756 640.5,-756 634.5,-750 634.5,-744 634.5,-744 634.5,-732 634.5,-732 634.5,-726 640.5,-720 646.5,-720 646.5,-720 683.5,-720 683.5,-720 689.5,-720 695.5,-726 695.5,-732 695.5,-732 695.5,-744 695.5,-744 695.5,-750 689.5,-756 683.5,-756"/>
<text text-anchor="middle" x="665" y="-735.5" font-family="sans" font-size="10.00">ivar_trim</text>
</g>
<!-- 7&#45;&gt;6 -->
<g id="edge15" class="edge">
<title>7&#45;&gt;6</title>
<path fill="none" stroke="grey" stroke-width="2" d="M664.26,-719.7C663.93,-711.98 663.53,-702.71 663.16,-694.11"/>
<polygon fill="grey" stroke="grey" stroke-width="2" points="666.66,-693.95 662.73,-684.1 659.66,-694.25 666.66,-693.95"/>
</g>
<!-- 8 -->
<g id="node9" class="node">
<title>8</title>
<path fill="none" stroke="#70d856" stroke-width="2" d="M753.5,-900C753.5,-900 704.5,-900 704.5,-900 698.5,-900 692.5,-894 692.5,-888 692.5,-888 692.5,-876 692.5,-876 692.5,-870 698.5,-864 704.5,-864 704.5,-864 753.5,-864 753.5,-864 759.5,-864 765.5,-870 765.5,-876 765.5,-876 765.5,-888 765.5,-888 765.5,-894 759.5,-900 753.5,-900"/>
<text text-anchor="middle" x="729" y="-879.5" font-family="sans" font-size="10.00">align_reads</text>
</g>
<!-- 8&#45;&gt;7 -->
<g id="edge17" class="edge">
<title>8&#45;&gt;7</title>
<path fill="none" stroke="grey" stroke-width="2" d="M727.55,-863.81C725.44,-845.28 720.46,-815.31 709,-792 704.04,-781.92 696.79,-772.09 689.61,-763.7"/>
<polygon fill="grey" stroke="grey" stroke-width="2" points="692.1,-761.23 682.81,-756.13 686.89,-765.91 692.1,-761.23"/>
</g>
<!-- 10 -->
<g id="node11" class="node">
<title>10</title>
<path fill="none" stroke="#56c1d8" stroke-width="2" d="M688.5,-828C688.5,-828 641.5,-828 641.5,-828 635.5,-828 629.5,-822 629.5,-816 629.5,-816 629.5,-804 629.5,-804 629.5,-798 635.5,-792 641.5,-792 641.5,-792 688.5,-792 688.5,-792 694.5,-792 700.5,-798 700.5,-804 700.5,-804 700.5,-816 700.5,-816 700.5,-822 694.5,-828 688.5,-828"/>
<text text-anchor="middle" x="665" y="-807.5" font-family="sans" font-size="10.00">bam_index</text>
</g>
<!-- 8&#45;&gt;10 -->
<g id="edge20" class="edge">
<title>8&#45;&gt;10</title>
<path fill="none" stroke="grey" stroke-width="2" d="M713.18,-863.7C705.43,-855.22 695.96,-844.86 687.48,-835.58"/>
<polygon fill="grey" stroke="grey" stroke-width="2" points="689.97,-833.12 680.64,-828.1 684.8,-837.85 689.97,-833.12"/>
</g>
<!-- 9&#45;&gt;8 -->
<g id="edge18" class="edge">
<title>9&#45;&gt;8</title>
<path fill="none" stroke="grey" stroke-width="2" d="M734.27,-935.7C733.5,-927.98 732.57,-918.71 731.71,-910.11"/>
<polygon fill="grey" stroke="grey" stroke-width="2" points="735.19,-909.71 730.71,-900.1 728.22,-910.4 735.19,-909.71"/>
</g>
<!-- 10&#45;&gt;7 -->
<g id="edge16" class="edge">
<title>10&#45;&gt;7</title>
<path fill="none" stroke="grey" stroke-width="2" d="M665,-791.7C665,-783.98 665,-774.71 665,-766.11"/>
<polygon fill="grey" stroke="grey" stroke-width="2" points="668.5,-766.1 665,-756.1 661.5,-766.1 668.5,-766.1"/>
</g>
<!-- 11 -->
<g id="node12" class="node">
<title>11</title>
<path fill="none" stroke="#d8c356" stroke-width="2" d="M647.5,-324C647.5,-324 400.5,-324 400.5,-324 394.5,-324 388.5,-318 388.5,-312 388.5,-312 388.5,-300 388.5,-300 388.5,-294 394.5,-288 400.5,-288 400.5,-288 647.5,-288 647.5,-288 653.5,-288 659.5,-294 659.5,-300 659.5,-300 659.5,-312 659.5,-312 659.5,-318 653.5,-324 647.5,-324"/>
<text text-anchor="middle" x="524" y="-303.5" font-family="sans" font-size="10.00">get_ambiguous_nucleotide_positions_and_N_counts</text>
</g>
<!-- 11&#45;&gt;1 -->
<g id="edge8" class="edge">
<title>11&#45;&gt;1</title>
<path fill="none" stroke="grey" stroke-width="2" d="M633.89,-287.93C652.76,-280.02 670.09,-268.56 682,-252 696.16,-232.32 682.13,-206.68 667.09,-187.98"/>
<polygon fill="grey" stroke="grey" stroke-width="2" points="669.59,-185.52 660.44,-180.18 664.26,-190.06 669.59,-185.52"/>
</g>
<!-- 16 -->
<g id="node17" class="node">
<title>16</title>
<path fill="none" stroke="#5663d8" stroke-width="2" d="M661.5,-252C661.5,-252 512.5,-252 512.5,-252 506.5,-252 500.5,-246 500.5,-240 500.5,-240 500.5,-228 500.5,-228 500.5,-222 506.5,-216 512.5,-216 512.5,-216 661.5,-216 661.5,-216 667.5,-216 673.5,-222 673.5,-228 673.5,-228 673.5,-240 673.5,-240 673.5,-246 667.5,-252 661.5,-252"/>
<text text-anchor="middle" x="587" y="-231.5" font-family="sans" font-size="10.00">get_ambiguous_position_counts</text>
</g>
<!-- 11&#45;&gt;16 -->
<g id="edge27" class="edge">
<title>11&#45;&gt;16</title>
<path fill="none" stroke="grey" stroke-width="2" d="M539.57,-287.7C547.2,-279.22 556.52,-268.86 564.88,-259.58"/>
<polygon fill="grey" stroke="grey" stroke-width="2" points="567.52,-261.88 571.61,-252.1 562.31,-257.2 567.52,-261.88"/>
</g>
<!-- 22 -->
<g id="node23" class="node">
<title>22</title>
<path fill="none" stroke="#d8a456" stroke-width="2" d="M519,-180C519,-180 347,-180 347,-180 341,-180 335,-174 335,-168 335,-168 335,-156 335,-156 335,-150 341,-144 347,-144 347,-144 519,-144 519,-144 525,-144 531,-150 531,-156 531,-156 531,-168 531,-168 531,-174 525,-180 519,-180"/>
<text text-anchor="middle" x="433" y="-159.5" font-family="sans" font-size="10.00">combine_ambig_nuc_pos_and_depth</text>
</g>
<!-- 11&#45;&gt;22 -->
<g id="edge34" class="edge">
<title>11&#45;&gt;22</title>
<path fill="none" stroke="grey" stroke-width="2" d="M513.02,-287.87C497.24,-263.24 468.01,-217.64 449.59,-188.88"/>
<polygon fill="grey" stroke="grey" stroke-width="2" points="452.36,-186.72 444.02,-180.19 446.46,-190.5 452.36,-186.72"/>
</g>
<!-- 23 -->
<g id="node24" class="node">
<title>23</title>
<path fill="none" stroke="#ced856" stroke-width="2" d="M432.5,-252C432.5,-252 287.5,-252 287.5,-252 281.5,-252 275.5,-246 275.5,-240 275.5,-240 275.5,-228 275.5,-228 275.5,-222 281.5,-216 287.5,-216 287.5,-216 432.5,-216 432.5,-216 438.5,-216 444.5,-222 444.5,-228 444.5,-228 444.5,-240 444.5,-240 444.5,-246 438.5,-252 432.5,-252"/>
<text text-anchor="middle" x="360" y="-231.5" font-family="sans" font-size="10.00">get_ambiguous_position_depth</text>
</g>
<!-- 11&#45;&gt;23 -->
<g id="edge36" class="edge">
<title>11&#45;&gt;23</title>
<path fill="none" stroke="grey" stroke-width="2" d="M483.88,-287.88C461.36,-278.26 433.08,-266.19 409.23,-256.01"/>
<polygon fill="grey" stroke="grey" stroke-width="2" points="410.56,-252.77 399.99,-252.07 407.81,-259.21 410.56,-252.77"/>
</g>
<!-- 12 -->
<g id="node13" class="node">
<title>12</title>
<path fill="none" stroke="#56d8b9" stroke-width="2" d="M523.5,-396C523.5,-396 450.5,-396 450.5,-396 444.5,-396 438.5,-390 438.5,-384 438.5,-384 438.5,-372 438.5,-372 438.5,-366 444.5,-360 450.5,-360 450.5,-360 523.5,-360 523.5,-360 529.5,-360 535.5,-366 535.5,-372 535.5,-372 535.5,-384 535.5,-384 535.5,-390 529.5,-396 523.5,-396"/>
<text text-anchor="middle" x="487" y="-375.5" font-family="sans" font-size="10.00">align_consensus</text>
</g>
<!-- 12&#45;&gt;11 -->
<g id="edge21" class="edge">
<title>12&#45;&gt;11</title>
<path fill="none" stroke="grey" stroke-width="2" d="M496.15,-359.7C500.4,-351.64 505.56,-341.89 510.27,-332.98"/>
<polygon fill="grey" stroke="grey" stroke-width="2" points="513.38,-334.58 514.96,-324.1 507.19,-331.31 513.38,-334.58"/>
</g>
<!-- 13 -->
<g id="node14" class="node">
<title>13</title>
<path fill="none" stroke="#56a2d8" stroke-width="2" d="M535,-468C535,-468 437,-468 437,-468 431,-468 425,-462 425,-456 425,-456 425,-444 425,-444 425,-438 431,-432 437,-432 437,-432 535,-432 535,-432 541,-432 547,-438 547,-444 547,-444 547,-456 547,-456 547,-462 541,-468 535,-468"/>
<text text-anchor="middle" x="486" y="-447.5" font-family="sans" font-size="10.00">aggregate_consensus</text>
</g>
<!-- 13&#45;&gt;12 -->
<g id="edge22" class="edge">
<title>13&#45;&gt;12</title>
<path fill="none" stroke="grey" stroke-width="2" d="M486.25,-431.7C486.36,-423.98 486.49,-414.71 486.61,-406.11"/>
<polygon fill="grey" stroke="grey" stroke-width="2" points="490.11,-406.15 486.76,-396.1 483.11,-406.05 490.11,-406.15"/>
</g>
<!-- 14&#45;&gt;13 -->
<g id="edge23" class="edge">
<title>14&#45;&gt;13</title>
<path fill="none" stroke="grey" stroke-width="2" d="M578.16,-503.88C562.06,-494.64 542,-483.13 524.71,-473.21"/>
<polygon fill="grey" stroke="grey" stroke-width="2" points="526.37,-470.13 515.96,-468.19 522.89,-476.2 526.37,-470.13"/>
</g>
<!-- 30 -->
<g id="node31" class="node">
<title>30</title>
<path fill="none" stroke="#d8b456" stroke-width="2" d="M703,-468C703,-468 577,-468 577,-468 571,-468 565,-462 565,-456 565,-456 565,-444 565,-444 565,-438 571,-432 577,-432 577,-432 703,-432 703,-432 709,-432 715,-438 715,-444 715,-444 715,-456 715,-456 715,-462 709,-468 703,-468"/>
<text text-anchor="middle" x="640" y="-447.5" font-family="sans" font-size="10.00">align_individual_consensus</text>
</g>
<!-- 14&#45;&gt;30 -->
<g id="edge44" class="edge">
<title>14&#45;&gt;30</title>
<path fill="none" stroke="grey" stroke-width="2" d="M615.91,-503.7C619.55,-495.73 623.95,-486.1 627.99,-477.26"/>
<polygon fill="grey" stroke="grey" stroke-width="2" points="631.21,-478.65 632.18,-468.1 624.84,-475.74 631.21,-478.65"/>
</g>
<!-- 15&#45;&gt;14 -->
<g id="edge24" class="edge">
<title>15&#45;&gt;14</title>
<path fill="none" stroke="grey" stroke-width="2" d="M648.65,-575.7C642.24,-567.39 634.44,-557.28 627.39,-548.14"/>
<polygon fill="grey" stroke="grey" stroke-width="2" points="630.07,-545.88 621.19,-540.1 624.53,-550.16 630.07,-545.88"/>
</g>
<!-- 16&#45;&gt;1 -->
<g id="edge10" class="edge">
<title>16&#45;&gt;1</title>
<path fill="none" stroke="grey" stroke-width="2" d="M600.84,-215.7C607.49,-207.39 615.58,-197.28 622.89,-188.14"/>
<polygon fill="grey" stroke="grey" stroke-width="2" points="625.8,-190.1 629.32,-180.1 620.34,-185.73 625.8,-190.1"/>
</g>
<!-- 17 -->
<g id="node18" class="node">
<title>17</title>
<path fill="none" stroke="#61d856" stroke-width="2" d="M437.5,-108C437.5,-108 276.5,-108 276.5,-108 270.5,-108 264.5,-102 264.5,-96 264.5,-96 264.5,-84 264.5,-84 264.5,-78 270.5,-72 276.5,-72 276.5,-72 437.5,-72 437.5,-72 443.5,-72 449.5,-78 449.5,-84 449.5,-84 449.5,-96 449.5,-96 449.5,-102 443.5,-108 437.5,-108"/>
<text text-anchor="middle" x="357" y="-87.5" font-family="sans" font-size="10.00">get_summary_amplicon_coverage</text>
</g>
<!-- 17&#45;&gt;0 -->
<g id="edge7" class="edge">
<title>17&#45;&gt;0</title>
<path fill="none" stroke="grey" stroke-width="2" d="M395.65,-71.88C420.81,-60.73 453.44,-46.27 478.22,-35.29"/>
<polygon fill="grey" stroke="grey" stroke-width="2" points="479.92,-38.37 487.64,-31.12 477.08,-31.97 479.92,-38.37"/>
</g>
<!-- 18&#45;&gt;17 -->
<g id="edge28" class="edge">
<title>18&#45;&gt;17</title>
<path fill="none" stroke="grey" stroke-width="2" d="M226.02,-215.87C240.75,-206.05 258.99,-193.11 274,-180 296.88,-160.03 320.23,-134.43 336.31,-115.81"/>
<polygon fill="grey" stroke="grey" stroke-width="2" points="339.11,-117.93 342.95,-108.05 333.79,-113.38 339.11,-117.93"/>
</g>
<!-- 20 -->
<g id="node21" class="node">
<title>20</title>
<path fill="none" stroke="#5682d8" stroke-width="2" d="M128,-180C128,-180 12,-180 12,-180 6,-180 0,-174 0,-168 0,-168 0,-156 0,-156 0,-150 6,-144 12,-144 12,-144 128,-144 128,-144 134,-144 140,-150 140,-156 140,-156 140,-168 140,-168 140,-174 134,-180 128,-180"/>
<text text-anchor="middle" x="70" y="-159.5" font-family="sans" font-size="10.00">get_amplicon_depth_plot</text>
</g>
<!-- 18&#45;&gt;20 -->
<g id="edge32" class="edge">
<title>18&#45;&gt;20</title>
<path fill="none" stroke="grey" stroke-width="2" d="M167.44,-215.88C150.34,-206.6 129.02,-195.03 110.68,-185.08"/>
<polygon fill="grey" stroke="grey" stroke-width="2" points="112.14,-181.88 101.68,-180.19 108.8,-188.04 112.14,-181.88"/>
</g>
<!-- 21 -->
<g id="node22" class="node">
<title>21</title>
<path fill="none" stroke="#56b1d8" stroke-width="2" d="M253.5,-180C253.5,-180 170.5,-180 170.5,-180 164.5,-180 158.5,-174 158.5,-168 158.5,-168 158.5,-156 158.5,-156 158.5,-150 164.5,-144 170.5,-144 170.5,-144 253.5,-144 253.5,-144 259.5,-144 265.5,-150 265.5,-156 265.5,-156 265.5,-168 265.5,-168 265.5,-174 259.5,-180 253.5,-180"/>
<text text-anchor="middle" x="212" y="-159.5" font-family="sans" font-size="10.00">get_coverage_plot</text>
</g>
<!-- 18&#45;&gt;21 -->
<g id="edge33" class="edge">
<title>18&#45;&gt;21</title>
<path fill="none" stroke="grey" stroke-width="2" d="M202.21,-215.7C203.65,-207.98 205.37,-198.71 206.96,-190.11"/>
<polygon fill="grey" stroke="grey" stroke-width="2" points="210.44,-190.58 208.82,-180.1 203.56,-189.3 210.44,-190.58"/>
</g>
<!-- 19 -->
<g id="node20" class="node">
<title>19</title>
<path fill="none" stroke="#bed856" stroke-width="2" d="M234,-108C234,-108 180,-108 180,-108 174,-108 168,-102 168,-96 168,-96 168,-84 168,-84 168,-78 174,-72 180,-72 180,-72 234,-72 234,-72 240,-72 246,-78 246,-84 246,-84 246,-96 246,-96 246,-102 240,-108 234,-108"/>
<text text-anchor="middle" x="207" y="-87.5" font-family="sans" font-size="10.00">collect_plots</text>
</g>
<!-- 19&#45;&gt;0 -->
<g id="edge6" class="edge">
<title>19&#45;&gt;0</title>
<path fill="none" stroke="grey" stroke-width="2" d="M246.15,-74.63C249.13,-73.69 252.1,-72.8 255,-72 333.12,-50.32 426.7,-33.4 477.57,-24.94"/>
<polygon fill="grey" stroke="grey" stroke-width="2" points="478.46,-28.34 487.76,-23.27 477.32,-21.44 478.46,-28.34"/>
</g>
<!-- 20&#45;&gt;19 -->
<g id="edge30" class="edge">
<title>20&#45;&gt;19</title>
<path fill="none" stroke="grey" stroke-width="2" d="M103.51,-143.88C121.84,-134.51 144.74,-122.81 164.33,-112.8"/>
<polygon fill="grey" stroke="grey" stroke-width="2" points="166.04,-115.86 173.36,-108.19 162.86,-109.62 166.04,-115.86"/>
</g>
<!-- 21&#45;&gt;19 -->
<g id="edge31" class="edge">
<title>21&#45;&gt;19</title>
<path fill="none" stroke="grey" stroke-width="2" d="M210.76,-143.7C210.21,-135.98 209.55,-126.71 208.94,-118.11"/>
<polygon fill="grey" stroke="grey" stroke-width="2" points="212.43,-117.83 208.22,-108.1 205.44,-118.33 212.43,-117.83"/>
</g>
<!-- 22&#45;&gt;0 -->
<g id="edge3" class="edge">
<title>22&#45;&gt;0</title>
<path fill="none" stroke="grey" stroke-width="2" d="M442.89,-143.87C457.11,-119.24 483.45,-73.64 500.05,-44.88"/>
<polygon fill="grey" stroke="grey" stroke-width="2" points="503.1,-46.6 505.07,-36.19 497.04,-43.1 503.1,-46.6"/>
</g>
<!-- 23&#45;&gt;22 -->
<g id="edge35" class="edge">
<title>23&#45;&gt;22</title>
<path fill="none" stroke="grey" stroke-width="2" d="M378.04,-215.7C387.06,-207.05 398.12,-196.45 407.94,-187.03"/>
<polygon fill="grey" stroke="grey" stroke-width="2" points="410.37,-189.55 415.16,-180.1 405.52,-184.5 410.37,-189.55"/>
</g>
<!-- 24&#45;&gt;23 -->
<g id="edge37" class="edge">
<title>24&#45;&gt;23</title>
<path fill="none" stroke="grey" stroke-width="2" d="M425.43,-503.82C422.68,-493.45 419.12,-479.97 416,-468 399.34,-404.06 394.12,-388.32 379,-324 374.15,-303.37 369.16,-279.92 365.52,-262.27"/>
<polygon fill="grey" stroke="grey" stroke-width="2" points="368.87,-261.2 363.43,-252.11 362.01,-262.61 368.87,-261.2"/>
</g>
<!-- 25 -->
<g id="node26" class="node">
<title>25</title>
<path fill="none" stroke="#5692d8" stroke-width="2" d="M845,-108C845,-108 555,-108 555,-108 549,-108 543,-102 543,-96 543,-96 543,-84 543,-84 543,-78 549,-72 555,-72 555,-72 845,-72 845,-72 851,-72 857,-78 857,-84 857,-84 857,-96 857,-96 857,-102 851,-108 845,-108"/>
<text text-anchor="middle" x="700" y="-87.5" font-family="sans" font-size="10.00">get_masked_ambiguous_nucleotide_positions_and_N_counts</text>
</g>
<!-- 25&#45;&gt;0 -->
<g id="edge4" class="edge">
<title>25&#45;&gt;0</title>
<path fill="none" stroke="grey" stroke-width="2" d="M654.74,-71.88C623.03,-59.88 581.18,-44.04 551.58,-32.84"/>
<polygon fill="grey" stroke="grey" stroke-width="2" points="552.63,-29.5 542.04,-29.23 550.15,-36.04 552.63,-29.5"/>
</g>
<!-- 26 -->
<g id="node27" class="node">
<title>26</title>
<path fill="none" stroke="#56d87b" stroke-width="2" d="M883,-180C883,-180 767,-180 767,-180 761,-180 755,-174 755,-168 755,-168 755,-156 755,-156 755,-150 761,-144 767,-144 767,-144 883,-144 883,-144 889,-144 895,-150 895,-156 895,-156 895,-168 895,-168 895,-174 889,-180 883,-180"/>
<text text-anchor="middle" x="825" y="-159.5" font-family="sans" font-size="10.00">align_masked_consensus</text>
</g>
<!-- 26&#45;&gt;25 -->
<g id="edge39" class="edge">
<title>26&#45;&gt;25</title>
<path fill="none" stroke="grey" stroke-width="2" d="M794.42,-143.88C777.93,-134.64 757.38,-123.13 739.66,-113.21"/>
<polygon fill="grey" stroke="grey" stroke-width="2" points="741.13,-110.02 730.7,-108.19 737.71,-116.13 741.13,-110.02"/>
</g>
<!-- 27 -->
<g id="node28" class="node">
<title>27</title>
<path fill="none" stroke="#d85656" stroke-width="2" d="M922,-252C922,-252 780,-252 780,-252 774,-252 768,-246 768,-240 768,-240 768,-228 768,-228 768,-222 774,-216 780,-216 780,-216 922,-216 922,-216 928,-216 934,-222 934,-228 934,-228 934,-240 934,-240 934,-246 928,-252 922,-252"/>
<text text-anchor="middle" x="851" y="-231.5" font-family="sans" font-size="10.00">aggregate_masked_consensus</text>
</g>
<!-- 27&#45;&gt;26 -->
<g id="edge40" class="edge">
<title>27&#45;&gt;26</title>
<path fill="none" stroke="grey" stroke-width="2" d="M844.57,-215.7C841.64,-207.81 838.11,-198.3 834.86,-189.55"/>
<polygon fill="grey" stroke="grey" stroke-width="2" points="838.12,-188.26 831.35,-180.1 831.55,-190.7 838.12,-188.26"/>
</g>
<!-- 31 -->
<g id="node32" class="node">
<title>31</title>
<path fill="none" stroke="#d89556" stroke-width="2" d="M958.5,-108C958.5,-108 887.5,-108 887.5,-108 881.5,-108 875.5,-102 875.5,-96 875.5,-96 875.5,-84 875.5,-84 875.5,-78 881.5,-72 887.5,-72 887.5,-72 958.5,-72 958.5,-72 964.5,-72 970.5,-78 970.5,-84 970.5,-84 970.5,-96 970.5,-96 970.5,-102 964.5,-108 958.5,-108"/>
<text text-anchor="middle" x="923" y="-87.5" font-family="sans" font-size="10.00">assign_lineages</text>
</g>
<!-- 27&#45;&gt;31 -->
<g id="edge45" class="edge">
<title>27&#45;&gt;31</title>
<path fill="none" stroke="grey" stroke-width="2" d="M873.4,-215.87C884.23,-206.43 896.48,-193.83 904,-180 914.41,-160.85 919.12,-136.5 921.24,-118.11"/>
<polygon fill="grey" stroke="grey" stroke-width="2" points="924.74,-118.35 922.22,-108.06 917.77,-117.67 924.74,-118.35"/>
</g>
<!-- 28 -->
<g id="node29" class="node">
<title>28</title>
<path fill="none" stroke="#5673d8" stroke-width="2" d="M908,-324C908,-324 780,-324 780,-324 774,-324 768,-318 768,-312 768,-312 768,-300 768,-300 768,-294 774,-288 780,-288 780,-288 908,-288 908,-288 914,-288 920,-294 920,-300 920,-300 920,-312 920,-312 920,-318 914,-324 908,-324"/>
<text text-anchor="middle" x="844" y="-303.5" font-family="sans" font-size="10.00">unalign_masked_consensus</text>
</g>
<!-- 28&#45;&gt;27 -->
<g id="edge41" class="edge">
<title>28&#45;&gt;27</title>
<path fill="none" stroke="grey" stroke-width="2" d="M845.73,-287.7C846.5,-279.98 847.43,-270.71 848.29,-262.11"/>
<polygon fill="grey" stroke="grey" stroke-width="2" points="851.78,-262.4 849.29,-252.1 844.81,-261.71 851.78,-262.4"/>
</g>
<!-- 28&#45;&gt;32 -->
<g id="edge46" class="edge">
<title>28&#45;&gt;32</title>
<path fill="none" stroke="grey" stroke-width="2" d="M881.92,-287.88C903.01,-278.35 929.46,-266.41 951.87,-256.28"/>
<polygon fill="grey" stroke="grey" stroke-width="2" points="953.53,-259.37 961.21,-252.07 950.65,-252.99 953.53,-259.37"/>
</g>
<!-- 29 -->
<g id="node30" class="node">
<title>29</title>
<path fill="none" stroke="#d8d356" stroke-width="2" d="M708,-396C708,-396 568,-396 568,-396 562,-396 556,-390 556,-384 556,-384 556,-372 556,-372 556,-366 562,-360 568,-360 568,-360 708,-360 708,-360 714,-360 720,-366 720,-372 720,-372 720,-384 720,-384 720,-390 714,-396 708,-396"/>
<text text-anchor="middle" x="638" y="-375.5" font-family="sans" font-size="10.00">mask_ambiguous_nucleotides</text>
</g>
<!-- 29&#45;&gt;28 -->
<g id="edge42" class="edge">
<title>29&#45;&gt;28</title>
<path fill="none" stroke="grey" stroke-width="2" d="M688.13,-359.97C717.04,-350.14 753.57,-337.73 784,-327.39"/>
<polygon fill="grey" stroke="grey" stroke-width="2" points="785.3,-330.64 793.65,-324.11 783.05,-324.01 785.3,-330.64"/>
</g>
<!-- 30&#45;&gt;29 -->
<g id="edge43" class="edge">
<title>30&#45;&gt;29</title>
<path fill="none" stroke="grey" stroke-width="2" d="M639.51,-431.7C639.29,-423.98 639.02,-414.71 638.77,-406.11"/>
<polygon fill="grey" stroke="grey" stroke-width="2" points="642.27,-406 638.49,-396.1 635.28,-406.2 642.27,-406"/>
</g>
<!-- 31&#45;&gt;0 -->
<g id="edge2" class="edge">
<title>31&#45;&gt;0</title>
<path fill="none" stroke="grey" stroke-width="2" d="M875.23,-74.23C872.12,-73.43 869.02,-72.68 866,-72 752.91,-46.73 616.59,-29.99 552.17,-22.88"/>
<polygon fill="grey" stroke="grey" stroke-width="2" points="552.42,-19.39 542.1,-21.78 551.66,-26.34 552.42,-19.39"/>
</g>
<!-- 32&#45;&gt;0 -->
<g id="edge1" class="edge">
<title>32&#45;&gt;0</title>
<path fill="none" stroke="grey" stroke-width="2" d="M1003.06,-215.77C1009.7,-182.75 1018.59,-110.43 980,-72 949.84,-41.96 657.48,-25.59 552.39,-20.63"/>
<polygon fill="grey" stroke="grey" stroke-width="2" points="552.39,-17.13 542.24,-20.16 552.07,-24.12 552.39,-17.13"/>
</g>
</g>
</svg>
